<?xml version="1.0" encoding="UTF-8"?>
<svg width="499px" height="110px" viewBox="0 0 499 110" version="1.1" xmlns="http://www.w3.org/2000/svg" xmlns:xlink="http://www.w3.org/1999/xlink">
    <title>logo</title>
    <g id="Page-1" stroke="none" stroke-width="1" fill="none" fill-rule="evenodd">
        <g id="wultra-black-full---smaller" transform="translate(-101.000000, -120.000000)" fill="#000000">
            <g id="logo" transform="translate(101.000000, 120.000000)">
                <g id="text" transform="translate(159.000000, 28.000000)">
                    <path d="M9.808,14.784 C10.64,14.784 11.171,15.154 11.402,15.893 L20.342,44.374 C20.48,44.698 20.711,44.859 21.034,44.859 L21.312,44.859 C21.727,44.859 21.958,44.698 22.004,44.374 L31.359,18.111 C31.822,16.863 32.364,15.997 32.988,15.512 C33.612,15.027 34.547,14.784 35.795,14.784 L44.041,14.784 C45.288,14.784 46.224,15.027 46.848,15.512 C47.471,15.997 48.014,16.863 48.476,18.111 L57.762,44.374 C57.808,44.698 58.039,44.859 58.455,44.859 L58.732,44.859 C59.056,44.859 59.287,44.698 59.425,44.374 L68.434,15.893 C68.573,15.154 69.104,14.784 70.028,14.784 L77.859,14.784 C78.459,14.784 78.84,14.934 79.002,15.235 C79.164,15.535 79.175,15.939 79.037,16.447 L68.503,48.532 C67.949,50.288 67.29,51.443 66.528,51.997 C65.766,52.551 64.646,52.829 63.167,52.829 L54.436,52.829 C53.234,52.829 52.311,52.517 51.664,51.893 C51.017,51.269 50.394,50.149 49.793,48.532 L40.646,23.239 C40.553,22.961 40.345,22.823 40.022,22.823 L39.606,22.823 C39.236,22.823 39.029,22.961 38.983,23.239 L29.905,48.532 C29.304,50.149 28.68,51.269 28.033,51.893 C27.387,52.517 26.463,52.829 25.261,52.829 L16.53,52.829 C15.052,52.829 13.931,52.551 13.169,51.997 C12.407,51.443 11.748,50.288 11.194,48.532 L0.799,16.447 C0.661,15.939 0.661,15.535 0.799,15.235 C0.938,14.934 1.331,14.784 1.978,14.784 L9.808,14.784" id="Fill-2"></path>
                    <path d="M103.096,14.784 C104.112,14.784 104.62,15.316 104.62,16.378 L104.62,36.405 C104.62,37.884 104.713,39.108 104.897,40.078 C105.082,41.048 105.429,41.822 105.937,42.399 C106.445,42.977 107.161,43.393 108.085,43.647 C109.009,43.901 110.233,44.028 111.758,44.028 L129.567,44.028 C131.092,44.028 132.339,43.901 133.309,43.647 C134.28,43.393 135.054,42.977 135.631,42.399 C136.208,41.822 136.612,41.048 136.844,40.078 C137.075,39.108 137.19,37.884 137.19,36.405 L137.19,16.378 C137.19,15.316 137.698,14.784 138.715,14.784 L145.506,14.784 C146.522,14.784 147.03,15.316 147.03,16.378 L147.03,38.831 C147.03,41.325 146.753,43.462 146.199,45.241 C145.644,47.019 144.732,48.474 143.462,49.606 C142.191,50.738 140.493,51.558 138.368,52.066 C136.243,52.575 133.633,52.829 130.537,52.829 L111.203,52.829 C108.062,52.829 105.44,52.575 103.338,52.066 C101.236,51.558 99.55,50.738 98.279,49.606 C97.009,48.474 96.096,47.019 95.542,45.241 C94.988,43.462 94.711,41.325 94.711,38.831 L94.711,16.378 C94.711,15.316 95.242,14.784 96.304,14.784 L103.096,14.784" id="Fill-3"></path>
                    <path d="M174.277,0.855 C175.293,0.855 175.801,1.364 175.801,2.38 L175.801,51.304 C175.801,52.32 175.293,52.829 174.277,52.829 L167.486,52.829 C166.47,52.829 165.961,52.32 165.961,51.304 L165.961,2.38 C165.961,1.364 166.47,0.855 167.486,0.855 L174.277,0.855" id="Fill-4"></path>
                    <path d="M199.514,14.784 L199.514,5.637 C199.514,4.62 200.022,4.112 201.039,4.112 L207.899,4.112 C208.916,4.112 209.424,4.62 209.424,5.637 L209.424,14.784 L221.551,14.784 C222.382,14.784 222.798,15.2 222.798,16.032 L222.798,21.714 C222.798,22.546 222.382,22.961 221.551,22.961 L209.424,22.961 L209.424,39.038 C209.424,40.979 209.816,42.399 210.602,43.3 C211.387,44.201 212.935,44.652 215.245,44.652 L221.966,44.652 C222.798,44.652 223.214,45.067 223.214,45.899 L223.214,51.581 C223.214,52.413 222.798,52.829 221.966,52.829 L213.582,52.829 C210.81,52.829 208.523,52.575 206.721,52.066 C204.919,51.558 203.475,50.75 202.39,49.641 C201.304,48.532 200.554,47.1 200.138,45.345 C199.722,43.589 199.514,41.487 199.514,39.038 L199.514,22.961 L192.931,22.961 C192.099,22.961 191.683,22.546 191.683,21.714 L191.683,16.032 C191.683,15.2 192.099,14.784 192.931,14.784 L199.514,14.784" id="Fill-5"></path>
                    <path d="M274.784,14.784 C275.616,14.784 276.031,15.2 276.031,16.032 L276.031,21.853 C276.031,22.684 275.616,23.1 274.784,23.1 L256.351,23.1 C254.872,23.1 253.648,23.227 252.678,23.481 C251.708,23.735 250.934,24.151 250.357,24.729 C249.779,25.306 249.375,26.091 249.144,27.085 C248.913,28.078 248.797,29.291 248.797,30.723 L248.797,51.304 C248.797,52.32 248.289,52.829 247.273,52.829 L240.482,52.829 C239.419,52.829 238.888,52.32 238.888,51.304 L238.888,28.852 C238.888,26.357 239.165,24.22 239.72,22.442 C240.274,20.663 241.186,19.208 242.457,18.076 C243.727,16.944 245.414,16.112 247.516,15.581 C249.617,15.05 252.239,14.784 255.381,14.784 L274.784,14.784" id="Fill-6"></path>
                    <path d="M322.613,14.784 C325.707,14.784 328.318,15.05 330.443,15.581 C332.568,16.112 334.266,16.944 335.536,18.076 C336.807,19.208 337.719,20.663 338.274,22.442 C338.828,24.22 339.105,26.357 339.105,28.852 L339.105,47.285 C339.105,48.394 339.024,49.306 338.862,50.022 C338.701,50.738 338.424,51.304 338.031,51.72 C337.638,52.136 337.119,52.424 336.472,52.586 C335.825,52.748 334.994,52.829 333.977,52.829 L300.992,52.829 C298.959,52.829 297.261,52.632 295.898,52.24 C294.535,51.847 293.438,51.258 292.607,50.473 C291.775,49.687 291.186,48.671 290.839,47.424 C290.493,46.176 290.319,44.698 290.319,42.988 L290.319,39.662 C290.319,38.23 290.493,36.948 290.839,35.816 C291.186,34.684 291.775,33.726 292.607,32.94 C293.438,32.155 294.535,31.566 295.898,31.173 C297.261,30.781 298.959,30.584 300.992,30.584 L329.195,30.584 L329.195,29.267 C329.195,28.159 329.08,27.212 328.849,26.426 C328.618,25.641 328.225,25.006 327.671,24.52 C327.116,24.035 326.354,23.677 325.384,23.446 C324.414,23.215 323.167,23.1 321.642,23.1 L292.675,23.1 C291.844,23.1 291.429,22.684 291.429,21.853 L291.429,16.032 C291.429,15.2 291.844,14.784 292.675,14.784 L322.613,14.784 Z M327.186,45.206 C327.925,45.206 328.445,45.033 328.745,44.686 C329.045,44.34 329.195,43.728 329.195,42.85 L329.195,36.752 L303.833,36.752 C302.401,36.752 301.396,37.04 300.818,37.618 C300.241,38.195 299.952,39.038 299.952,40.147 L299.952,41.602 C299.952,42.85 300.241,43.762 300.818,44.34 C301.396,44.917 302.401,45.206 303.833,45.206 L327.186,45.206 L327.186,45.206 Z" id="Fill-7"></path>
                </g>
                <g>
                    <path d="M115.625,9.258 C118.249,17.163 119.572,25.429 119.572,33.757 C119.572,68.256 96.809,98.64 63.782,108.347 L60.073,109.437 L56.363,108.347 C23.337,98.64 0.574,68.256 0.574,33.757 C0.574,25.429 1.897,17.163 4.52,9.258 L7.511,0.247 L45.762,13.402 L17.006,13.402 C14.882,19.802 13.729,26.644 13.729,33.757 C13.729,63.091 33.287,87.853 60.073,95.726 C86.859,87.853 106.417,63.091 106.417,33.757 C106.417,26.644 105.264,19.802 103.14,13.402 L72.569,13.402 L112.634,0.247 L115.625,9.258" id="Fill-8"></path>
                    <path d="M60.073,109.437 L56.363,108.347 C23.337,98.64 0.574,68.256 0.574,33.757 C0.574,25.429 1.897,17.163 4.52,9.258 L7.511,0.247 L45.762,13.402 L17.006,13.402 C14.882,19.802 13.729,26.644 13.729,33.757 C13.729,63.091 33.287,87.853 60.073,95.726 L60.073,109.437" id="Fill-9"></path>
                    <polyline id="Fill-10" points="51.91 103.074 68.236 103.074 68.236 46.838 60.173 30.512 51.91 46.838 51.91 103.074"></polyline>
                    <polyline id="Fill-11" points="50.91 104.070001 60.0699998 104.070001 60.0699998 30.71 50.91 47.0599819 50.91 104.070001"></polyline>
                </g>
            </g>
        </g>
    </g>
</svg>